<svg xmlns="http://www.w3.org/2000/svg" width="151" height="55" viewBox="0 0 151 55">
  <g fill="none">
    <g transform="translate(110.08 .61)">
      <path fill="#87B09A" d="M17.1245916,38.7595394 L1.80983076,23.4684509 C-0.0640470934,21.5974696 -0.0640470934,18.564931 1.80983076,16.6939497 L17.1245916,1.40286132 C18.9974687,-0.467620438 22.0352023,-0.467620438 23.9090802,1.40286132 L39.2238411,16.6939497 C41.0972186,18.564931 41.0972186,21.5974696 39.2238411,23.4684509 L23.9090802,38.7595394 C22.0357028,40.6300211 18.9974687,40.6300211 17.1245916,38.7595394"/>
      <path fill="#FFF" d="M32.2382045,19.7709522 L29.4226343,16.9592344 C29.1449301,16.6829587 28.6720824,16.8787996 28.6720824,17.2699821 L28.6720824,18.2571809 C28.6720824,18.4994842 28.4749374,18.6958248 28.2317587,18.6958248 L26.6901251,18.6958248 C26.447947,18.6958248 26.250802,18.4994842 26.250802,18.2571809 L26.250802,16.2483115 C26.250802,16.0060081 26.447947,15.8096675 26.6901251,15.8096675 L27.2090067,15.8096675 C27.6007947,15.8096675 27.7974393,15.3370511 27.5197351,15.0602757 L24.7041648,12.2490576 C24.5325387,12.0776967 24.2548344,12.0776967 24.0827079,12.2490576 L21.2666372,15.0602757 C20.9899338,15.3370511 21.1865784,15.8096675 21.5773657,15.8096675 L22.1943194,15.8096675 C22.4369978,15.8096675 22.6336424,16.0060081 22.6336424,16.2483115 L22.6336424,18.2187121 C22.6336424,18.4610154 22.4369978,18.657356 22.1943194,18.657356 L18.8153348,18.657356 C18.5726564,18.657356 18.3760117,18.4610154 18.3760117,18.2187121 L18.3760117,16.2483115 C18.3760117,16.0060081 18.5726564,15.8096675 18.8153348,15.8096675 L19.454805,15.8096675 C19.8460927,15.8096675 20.0427373,15.3370511 19.7655335,15.0602757 L16.9494628,12.2490576 C16.7778366,12.0776967 16.5001324,12.0776967 16.3285062,12.2490576 L13.5119353,15.0602757 C13.2352318,15.3370511 13.4318764,15.8096675 13.8231641,15.8096675 L14.3190287,15.8096675 C14.5617071,15.8096675 14.7588521,16.0060081 14.7588521,16.2483115 L14.7588521,18.2571809 C14.7588521,18.4994842 14.5617071,18.6958248 14.3190287,18.6958248 L12.7999117,18.6958248 C12.5577336,18.6958248 12.3605887,18.4994842 12.3605887,18.2571809 L12.3605887,17.2699821 C12.3605887,16.8787996 11.887741,16.6829587 11.6100368,16.9592344 L8.79446652,19.7709522 C8.62284032,19.9423131 8.62284032,20.2200876 8.79446652,20.3914485 L11.6100368,23.2031662 C11.887741,23.479442 12.3605887,23.283601 12.3605887,22.892918 L12.3605887,21.9052198 C12.3605887,21.6629164 12.5577336,21.4665758 12.7999117,21.4665758 L14.3190287,21.4665758 C14.5617071,21.4665758 14.7588521,21.6629164 14.7588521,21.9052198 L14.7588521,23.9140892 C14.7588521,24.1563925 14.5617071,24.3527332 14.3190287,24.3527332 L13.8231641,24.3527332 C13.4318764,24.3527332 13.2352318,24.8253495 13.5119353,25.1021249 L16.3285062,27.913343 C16.5001324,28.084704 16.7778366,28.084704 16.9494628,27.913343 L19.7655335,25.1021249 C20.0427373,24.8253495 19.8460927,24.3527332 19.454805,24.3527332 L18.8153348,24.3527332 C18.5726564,24.3527332 18.3760117,24.1563925 18.3760117,23.9140892 L18.3760117,21.935695 C18.3760117,21.6928921 18.5726564,21.4965515 18.8153348,21.4965515 L22.1943194,21.4965515 C22.4369978,21.4965515 22.6336424,21.6928921 22.6336424,21.935695 L22.6336424,23.9140892 C22.6336424,24.1563925 22.4369978,24.3527332 22.1943194,24.3527332 L21.5773657,24.3527332 C21.1865784,24.3527332 20.9899338,24.8253495 21.2666372,25.1021249 L24.0827079,27.913343 C24.2548344,28.084704 24.5325387,28.084704 24.7041648,27.913343 L27.5202355,25.1021249 C27.7979396,24.8253495 27.6012951,24.3527332 27.209507,24.3527332 L26.6906254,24.3527332 C26.4484474,24.3527332 26.2513024,24.1563925 26.2513024,23.9140892 L26.2513024,21.9052198 C26.2513024,21.6629164 26.4484474,21.4665758 26.6906254,21.4665758 L28.232259,21.4665758 C28.4754378,21.4665758 28.6725828,21.6629164 28.6725828,21.9052198 L28.6725828,22.892918 C28.6725828,23.283601 29.1454305,23.479442 29.4231347,23.2031662 L32.2387049,20.3914485 C32.4098308,20.2200876 32.4098308,19.9423131 32.2382045,19.7709522"/>
    </g>
    <g fill="#FFF" transform="translate(0 28.587)">
      <path d="M49.8681677 22.5861671C46.2274908 22.5861671 43.6686092 20.0752052 43.6400883 16.4661347 43.6120677 12.851069 46.1589404 10.3036366 49.8346431 10.2716626 53.3882561 10.2456837 55.985666 12.7121817 56.0221928 16.1468938 56.0427079 18.0918151 55.4522737 19.7299854 54.3144371 20.8845483 53.2281383 21.9871532 51.7065195 22.575176 49.9142016 22.5861671L49.8681677 22.5861671 49.8681677 22.5861671zM56.1738043 9.27197404C54.3949964 7.71923439 51.9211773 6.9658459 49.3818101 7.2021541 47.4794113 7.38000973 45.7361295 8.10841849 44.4231641 9.24849307 44.0949228 9.53326196 43.5860485 9.3149392 43.5860485 8.88129116L43.5860485.859802108C43.5860485.583526358 43.3618837.359708029 43.0846799.359708029L40.9756292.359708029C40.7159382.359708029 40.4992788.557547445 40.476262.815837794 40.4682561.9062644 40.4592494.990196267 40.4502428 1.07013139 40.4307284 1.24548905 40.4122148 1.41135442 40.4122148 1.58621249L40.4112141 3.47368045C40.4077116 7.6183163 40.4047093 11.904837 40.4182193 16.1204153 40.4202207 16.8708061 40.4452391 17.6711565 40.6113613 18.4385337 41.6060927 23.0427964 45.0040912 25.6661671 49.9537307 25.6656675 50.0367917 25.6656675 50.121354 25.6646683 50.2054157 25.6631695 54.1733333 25.5927267 57.4357322 23.3815215 58.7196763 19.8903552 60.13922 16.0304883 59.1399852 11.8623715 56.1738043 9.27197404L56.1738043 9.27197404zM34.8301104 16.3537259C34.8431199 18.1098004 34.2331715 19.7000097 33.1128476 20.8315912 31.9960265 21.9586764 30.4183665 22.5836691 28.6695805 22.5906635L28.6360559 22.5906635C25.0073878 22.5906635 22.464518 20.1106764 22.4475055 16.5495669 22.4294923 12.8111014 24.9088153 10.28715 28.6165416 10.2681654L28.6530684 10.2681654C32.2091832 10.2681654 34.805092 12.8220924 34.8301104 16.3537259M36.0855335 10.5179627C33.3310081 7.13071208 28.1361884 6.14401298 24.0021486 8.22282563 20.2238705 10.123283 18.335482 14.4792474 19.4107726 18.8167267 20.2638999 22.2569343 22.4680206 24.5175994 25.7854599 25.3549197 26.7396615 25.5957243 27.6503311 25.7161265 28.5159676 25.7161265 30.836674 25.7156269 32.833142 24.8523276 34.4728476 23.1337227 34.6724945 22.923893 34.8496247 22.7040714 35.0247535 22.466764L35.0247535 24.7104428C35.0247535 24.9867186 35.2489183 25.2105369 35.5256218 25.2105369L37.46805 25.2105369C37.7447535 25.2105369 37.9689183 24.9867186 37.9689183 24.7104428L37.9689183 24.7099432C37.9689183 23.7452263 37.9759235 22.7870041 37.9829286 21.8327786 37.9989404 19.5701152 38.0154525 17.229515 37.9338925 14.9393739 37.8803532 13.4475847 37.2583959 11.9592928 36.0855335 10.5179627M99.3045182 16.3537259C99.317528 18.1098004 98.7080791 19.7000097 97.5872551 20.8315912 96.4704338 21.9586764 94.8927742 22.5836691 93.1439884 22.5906635L93.1109636 22.5906635C89.482296 22.5906635 86.939426 20.1106764 86.9224135 16.5495669 86.9044003 12.8111014 89.3837236 10.28715 93.0914498 10.2681654L93.1279769 10.2681654C96.6835911 10.2681654 99.28 12.8220924 99.3045182 16.3537259M100.559941 10.5179627C97.805416 7.13071208 92.6105964 6.14401298 88.4770566 8.22282563 84.6982781 10.123283 82.81039 14.4792474 83.8856806 18.8167267 84.7383076 22.2569343 86.9424283 24.5175994 90.2598676 25.3549197 91.2140693 25.5957243 92.1252391 25.7161265 92.9903751 25.7161265 95.3115822 25.7156269 97.3075493 24.8523276 98.9472551 23.1337227 99.1469022 22.923893 99.324032 22.7040714 99.4991609 22.466764L99.4991609 24.7104428C99.4991609 24.9867186 99.7233262 25.2105369 100.000029 25.2105369L101.942958 25.2105369C102.219661 25.2105369 102.443827 24.9867186 102.443827 24.7104428L102.443827 24.7099432C102.443827 23.7452263 102.450831 22.7870041 102.457336 21.8327786 102.473348 19.5701152 102.48986 17.229515 102.4083 14.9393739 102.354761 13.4475847 101.733304 11.9592928 100.559941 10.5179627M10.6498308 7.30407137C7.94584253 6.86193025 5.72120677 7.38600486 4.01495217 8.86380535 3.68771156 9.14657582 3.18133922 8.92225787 3.18133922 8.49010868L3.18133922.85330738C3.18133922.576532036 2.95667403.352713707 2.67997057.352713707L.501368653.352713707C.224164827.353213301 0 .576532036 0 .85330738L0 24.7269294C0 25.0037048.224164827 25.2275231.501368653 25.2275231L2.71049301 25.2275231C2.98719647 25.2275231 3.21186166 25.0057032 3.21186166 24.7289278 3.21236203 23.8641298 3.21386314 22.10206 3.2143635 21.3281882 3.2158646 19.532146 3.21686534 17.7361038 3.22737307 15.9405612 3.23738043 14.0890641 3.79579102 12.594777 4.84155997 11.619069 5.89283297 10.638365 7.43196468 10.1817356 9.30384107 10.297142 12.094393 10.4705012 13.918234 12.2295734 14.0628404 14.8874161 14.1729212 16.8962855 14.179426 18.9526164 14.1859308 20.9400032 14.1889331 21.8207884 14.1919353 22.7010738 14.2034437 23.5808597 14.206446 23.8321557 14.2054452 24.0839514 14.2044444 24.3397437L14.2044444 24.7044476C14.2039441 24.9817227 14.4286092 25.205541 14.7053127 25.205541L16.9044297 25.205541C17.1811332 25.205541 17.4057984 24.9822222 17.4057984 24.7049473 17.4057984 23.7222449 17.409301 22.7450381 17.4128036 21.7713284 17.4208094 19.6365612 17.4293156 17.4283536 17.3962914 15.2646099 17.3302428 10.9601038 14.8083885 7.98401947 10.6498308 7.30407137M81.5969978 17.7860633L79.1476968 17.7860633C78.8870052 17.7860633 78.6693451 17.9859011 78.6483297 18.2461898L78.6193084 18.6033998C78.5977925 18.8586926 78.5782781 19.098498 78.5612656 19.3383033 78.4231641 21.2982125 77.2322884 22.4417843 75.2088006 22.5576902 73.8067697 22.6376253 71.4265195 22.3923244 71.2228698 19.843893 71.0512436 17.6836464 71.0472406 15.4624493 71.0427373 13.3156918 71.0412362 12.5972749 71.0397351 11.878858 71.0322296 11.1674356 71.0292274 10.8886618 71.2533922 10.6638443 71.5320972 10.6638443L77.8377336 10.6638443C78.300574 10.6638443 78.5157322 10.0908094 78.1669757 9.78655636L75.7637086 7.69025791C75.6721412 7.61032279 75.5550552 7.56635847 75.4339661 7.56635847L71.46805 7.56635847C71.1913466 7.56635847 70.9666814 7.34254014 70.9666814 7.0662644L70.9666814 3.73396918C70.9666814 3.45769343 70.7425165 3.23337551 70.4658131 3.23337551L68.3817807 3.23337551C68.1050772 3.23337551 67.8809124 3.45719384 67.8804121 3.73346958L67.8794113 4.73415734C67.8789109 4.82908029 67.8318764 14.268918 67.9159382 20.1071792 67.9359529 21.5140373 68.6329654 22.8989132 69.8783812 24.0070138 71.409507 25.3694079 73.1958204 25.6851516 74.7779838 25.6851516 75.1932892 25.6851516 75.5945843 25.6631695 75.9738631 25.6331939 77.7962031 25.4873123 79.4804415 24.5365839 80.5952612 23.024811 81.657042 21.5859789 82.0538337 19.8189132 81.6850626 18.1772458L81.5969978 17.7860633 81.5969978 17.7860633zM118.243444 18.2322012L118.1834 17.8000519 115.646034 17.8000519C115.38334 17.8000519 115.16518 18.0028873 115.146166 18.2646748L115.118146 18.6518605C115.102635 18.8746796 115.087123 19.0805125 115.073613 19.2868451 114.943017 21.2712344 113.770155 22.4307932 111.769684 22.5531939 110.346137 22.6401233 107.927859 22.3998183 107.728212 19.801927 107.559088 17.5952181 107.566092 15.3275588 107.572597 13.134339 107.574099 12.4693788 107.5761 11.804918 107.573598 11.1399579 107.572597 10.8626828 107.795762 10.6378653 108.073466 10.6378653L114.255011 10.6378653C114.730361 10.6378653 114.938514 10.0378524 114.564739 9.74409084L111.935805 7.67776804C111.847741 7.60782482 111.73816 7.57035524 111.626078 7.57035524L108.013922 7.57035524C107.736718 7.57035524 107.512554 7.3465369 107.512554 7.07026116L107.512554 3.86236496C107.512554 3.58608921 107.288388 3.36227088 107.011685 3.36227088L104.835084 3.36227088C104.558882 3.36227088 104.334216 3.58558962 104.334216 3.86186537L104.333216 4.88053852C104.332716 4.9734631 104.289684 14.27891 104.422781 20.0572198 104.481825 22.6081492 106.409242 24.8098621 109.108727 25.4093755 109.825755 25.5682466 110.639353 25.6466828 111.586049 25.6466828 111.725652 25.6466828 111.867756 25.6451841 112.013363 25.6421866 113.921766 25.5977227 115.622516 24.8128597 116.799883 23.4299821 118.000765 22.0236236 118.512642 20.1771225 118.243444 18.2322012M62.1952318 25.1875556L64.3122884 25.1875556C64.5889919 25.1875556 64.8136571 24.9642368 64.8136571 24.6874615L64.8136571 8.13189943C64.8136571 7.85912084 64.5949964 7.6368013 64.3217955 7.63130576L62.2047388 7.59233739C61.9240324 7.58684185 61.6943635 7.81215896 61.6943635 8.09243147L61.6943635 24.6874615C61.6943635 24.9642368 61.9185284 25.1875556 62.1952318 25.1875556M62.1952318 5.48504785L64.3122884 5.48504785C64.5889919 5.48504785 64.8136571 5.26072993 64.8136571 4.98445418L64.8136571 2.87066991C64.8136571 2.59439416 64.5889919 2.37057583 64.3122884 2.37057583L62.1952318 2.37057583C61.9185284 2.37057583 61.6943635 2.59439416 61.6943635 2.87066991L61.6943635 4.98445418C61.6943635 5.26072993 61.9185284 5.48504785 62.1952318 5.48504785"/>
    </g>
  </g>
</svg>
