<svg xmlns="http://www.w3.org/2000/svg" xmlns:xlink="http://www.w3.org/1999/xlink" width="494" height="116" viewBox="0 0 494 116">
  <defs>
    <path id="image-cat-set-a" d="M0.532653809,14.0605082 C9.11273193,14.2260355 13.1005249,9.36959022 15.758728,3.15328163 C18.4169312,-3.06302697 25.5014038,0.785605845 22.4657593,7.14058631 C19.4301147,13.4955668 11.8273972,22.0233988 0.532653809,21.8866801 C0.532653809,14.0605082 0.532653809,19.928184 0.532653809,14.0605082 Z"/>
    <ellipse id="image-cat-set-d" cx="6.996" cy="44.405" rx="1.999" ry="1.974"/>
    <filter id="image-cat-set-c" width="625.3%" height="632%" x="-262.6%" y="-266%" filterUnits="objectBoundingBox">
      <feOffset in="SourceAlpha" result="shadowOffsetOuter1"/>
      <feGaussianBlur in="shadowOffsetOuter1" result="shadowBlurOuter1" stdDeviation="3.5"/>
      <feColorMatrix in="shadowBlurOuter1" values="0 0 0 0 0.725490196   0 0 0 0 0.854901961   0 0 0 0 0.552941176  0 0 0 1 0"/>
    </filter>
    <ellipse id="image-cat-set-f" cx="6.996" cy="27.63" rx="1.999" ry="1.974"/>
    <filter id="image-cat-set-e" width="625.3%" height="632%" x="-262.6%" y="-266%" filterUnits="objectBoundingBox">
      <feOffset in="SourceAlpha" result="shadowOffsetOuter1"/>
      <feGaussianBlur in="shadowOffsetOuter1" result="shadowBlurOuter1" stdDeviation="3.5"/>
      <feColorMatrix in="shadowBlurOuter1" values="0 0 0 0 0.725490196   0 0 0 0 0.854901961   0 0 0 0 0.552941176  0 0 0 1 0"/>
    </filter>
    <polygon id="image-cat-set-g" points=".002 38.41 44.431 38.41 44.431 .226 .002 .226"/>
    <polygon id="image-cat-set-i" points="44.433 6.58 44.433 .06 .003 .06 .003 6.58"/>
    <polygon id="image-cat-set-k" points="0 .226 0 3.559 44.429 3.559 44.429 .226"/>
  </defs>
  <g fill="none" fill-rule="evenodd" transform="translate(-.57 -2.702)">
    <g transform="translate(353)">
      <path fill="#DDC7AE" fill-rule="nonzero" d="M31.0050269,100.301217 L31.0050269,100.301217 C28.7924596,100.301217 27,98.5145508 27,96.3091341 L27,81.5551758 L35.0100539,81.5551758 L35.0100539,96.3091341 C35.0100539,98.5145508 33.2175943,100.301217 31.0050269,100.301217 Z"/>
      <rect width="8.01" height="3" x="27" y="87.555" fill="#000" fill-opacity=".1"/>
      <path stroke="#DEBFA5" d="M56.8745117,8.63330078 C48.597168,9.796875 45.5877949,19.4628906 45.5877949,23.8007812"/>
      <path fill="#DDC7AE" fill-rule="nonzero" d="M59.0050269,100.301217 L59.0050269,100.301217 C56.7924596,100.301217 55,98.5145508 55,96.3091341 L55,81.5551758 L63.0100539,81.5551758 L63.0100539,96.3091341 C63.0100539,98.5145508 61.2175943,100.301217 59.0050269,100.301217 Z"/>
      <path fill="#DDC7AE" fill-rule="nonzero" d="M9.90710972,62.1164788 C7.69454239,62.1164788 5.90208279,60.3298122 5.90208279,58.1243955 L5.90208279,43.3704372 L13.9121366,43.3704372 L13.9121366,58.1243955 C13.9121366,60.3298122 12.119677,62.1164788 9.90710972,62.1164788 Z" transform="rotate(140 9.907 52.743)"/>
      <rect width="78.545" height="65.309" x="12" y="22.555" fill="#DDC7AE" rx="6"/>
      <path fill="#A2BD7C" d="M18,69.5551758 L90.5451895,69.5551758 L90.5451895,82.3012174 L90.5451895,82.3012174 C90.5451895,85.6149259 87.858898,88.3012174 84.5451895,88.3012174 L18,88.3012174 L18,88.3012174 C14.6862915,88.3012174 12,85.6149259 12,82.3012174 L12,75.5551758 L12,75.5551758 C12,72.2414673 14.6862915,69.5551758 18,69.5551758 Z"/>
      <rect width="63.852" height="61.845" x="12" y="25.555" fill="#FFE9D1" rx="4"/>
      <path fill="#FFF" d="M44.2046111,43.7179129 L44.2046111,43.7179129 L44.2046111,43.7179129 C51.2713093,43.7179129 57,49.4466037 57,56.5133018 L57,69.5750558 L31.4092223,69.5750558 L31.4092223,56.5133018 L31.4092223,56.5133018 C31.4092223,49.4466037 37.137913,43.7179129 44.2046111,43.7179129 Z"/>
      <ellipse cx="28.722" cy="41.272" fill="#837365" fill-rule="nonzero" rx="1.722" ry="1.717"/>
      <ellipse cx="58.722" cy="41.272" fill="#837365" fill-rule="nonzero" rx="1.722" ry="1.717"/>
      <path fill="#837365" fill-rule="nonzero" d="M47.3909668 49.56957L46.431632 50.3441984C44.9926297 51.5430279 42.4077553 51.6905762 40.6756229 50.6946255 40.4890856 50.5839643 40.3291964 50.4733031 40.1693073 50.3441984L39.2099724 49.56957C38.8901942 49.3113606 38.9434905 48.9240464 39.3165652 48.702724 39.4764543 48.6105064 39.6896399 48.5551758 39.9028254 48.5551758L46.6981139 48.5551758C47.2044295 48.5551758 47.6041523 48.8318288 47.6041523 49.1822559 47.6041523 49.3113606 47.5242078 49.4589088 47.3909668 49.56957zM45.110086 43.5701578L44.685891 44.0849338C44.0495986 44.8816108 42.9066288 44.9796634 42.1407212 44.3178086 42.0582389 44.2442692 41.9875397 44.1707298 41.9168405 44.0849338L41.4926456 43.5701578C41.3512473 43.3985658 41.3748136 43.1411778 41.5397784 42.994099 41.6104775 42.9328161 41.7047431 42.8960464 41.7990086 42.8960464L44.803723 42.8960464C45.0276036 42.8960464 45.2043516 43.079895 45.2043516 43.3127698 45.2043516 43.3985658 45.169002 43.4966184 45.110086 43.5701578z"/>
      <path stroke="#827365" stroke-linecap="round" stroke-linejoin="round" d="M14 49.5551758L17 49.5551758M70.1893763 49.9214417L73.1893763 49.9214417M14 45.5551758L17 45.5551758M70.1893763 45.4214417L73.1893763 45.4214417M14 54.5551758L17 54.5551758M70.1893763 54.4214417L73.1893763 54.4214417"/>
      <g transform="translate(51 14.555)">
        <path fill="#DDC7AE" d="M10.3242716,1.86558247 L14.7437844,9.59972995 L0.695299856,9.59972995 L5.1148127,1.86558247 L5.1148127,1.86558247 C5.93684261,0.42703013 7.7694066,-0.0727600504 9.20795894,0.749269858 C9.67305277,1.01503776 10.0585037,1.40048864 10.3242716,1.86558247 Z"/>
        <path fill="#827365" d="M8.58778527,6.45964674 L10.3821185,9.59972995 L5.05696573,9.59972995 L6.85129899,6.45964674 L6.85129899,6.45964674 C7.12530896,5.9801293 7.73616362,5.81353257 8.21568107,6.08754254 C8.37071234,6.17613184 8.49919597,6.30461547 8.58778527,6.45964674 Z"/>
      </g>
      <g transform="translate(22 14.555)">
        <path fill="#DDC7AE" d="M10.3242716,1.86558247 L14.7437844,9.59972995 L0.695299856,9.59972995 L5.1148127,1.86558247 L5.1148127,1.86558247 C5.93684261,0.42703013 7.7694066,-0.0727600504 9.20795894,0.749269858 C9.67305277,1.01503776 10.0585037,1.40048864 10.3242716,1.86558247 Z"/>
        <path fill="#827365" d="M8.58778527,6.45964674 L10.3821185,9.59972995 L5.05696573,9.59972995 L6.85129899,6.45964674 L6.85129899,6.45964674 C7.12530896,5.9801293 7.73616362,5.81353257 8.21568107,6.08754254 C8.37071234,6.17613184 8.49919597,6.30461547 8.58778527,6.45964674 Z"/>
      </g>
      <path fill="#DDC7AE" d="M90.5326538,72.615684 C99.1127319,72.7812113 103.100525,67.924766 105.758728,61.7084574 C108.416931,55.4921488 115.501404,59.3407816 112.465759,65.6957621 C109.430115,72.0507426 101.827397,80.5785746 90.5326538,80.4418558 C90.5326538,72.615684 90.5326538,78.4833598 90.5326538,72.615684 Z"/>
      <rect width="8.01" height="3" x="55" y="87.555" fill="#000" fill-opacity=".1"/>
      <g transform="translate(90 58.555)">
        <mask id="image-cat-set-b" fill="#fff">
          <use xlink:href="#image-cat-set-a"/>
        </mask>
        <use fill="#DDC7AE" xlink:href="#image-cat-set-a"/>
        <rect width="8.453" height="3.434" x="-1.977" y="16.067" fill="#000" fill-opacity=".1" mask="url(#image-cat-set-b)" transform="rotate(-90 2.25 17.784)"/>
      </g>
      <path fill="#DDC7AE" fill-rule="nonzero" d="M94.4868894,60.456661 C92.2743221,60.456661 90.4818625,58.6699944 90.4818625,56.4645777 L90.4818625,41.7106194 L98.4919164,41.7106194 L98.4919164,56.4645777 C98.4919164,58.6699944 96.6994568,60.456661 94.4868894,60.456661 Z" transform="rotate(-125 94.487 51.084)"/>
      <g transform="translate(48.5 .555)">
        <g fill="#FF9012">
          <g transform="translate(3.25 2.25)">
            <ellipse cx="8.25" cy="5.25" rx="1.5" ry="2.25" transform="rotate(90 8.25 5.25)"/>
            <ellipse cx="5.25" cy="2.25" rx="1.5" ry="2.25"/>
            <ellipse cx="2.25" cy="5.25" rx="1.5" ry="2.25" transform="rotate(-90 2.25 5.25)"/>
            <ellipse cx="5.25" cy="8.25" rx="1.5" ry="2.25" transform="rotate(-180 5.25 8.25)"/>
          </g>
          <g transform="rotate(45 4.159 10.298)">
            <ellipse cx="8.25" cy="5.25" rx="1.5" ry="2.25" transform="rotate(90 8.25 5.25)"/>
            <ellipse cx="5.25" cy="2.25" rx="1.5" ry="2.25"/>
            <ellipse cx="2.25" cy="5.25" rx="1.5" ry="2.25" transform="rotate(-90 2.25 5.25)"/>
            <ellipse cx="5.25" cy="8.25" rx="1.5" ry="2.25" transform="rotate(-180 5.25 8.25)"/>
          </g>
        </g>
        <path fill="#FFE48F" d="M8.5,9 C7.67263564,9 7,8.32716744 7,7.49991958 C7,6.67267171 7.67263564,6 8.5,6 C9.32720352,6 10,6.67267171 10,7.49991958 C10,8.32716744 9.32720352,9 8.5,9"/>
      </g>
      <path fill="#B9DA8D" d="M12,69.5551758 L75.8520978,69.5551758 L75.8520978,84.3012174 L75.8520978,84.3012174 C75.8520978,86.5103564 74.0612368,88.3012174 71.8520978,88.3012174 L16,88.3012174 L16,88.3012174 C13.790861,88.3012174 12,86.5103564 12,84.3012174 L12,69.5551758 Z"/>
      <path fill="#FFF" fill-rule="nonzero" d="M51.2508673,78.5690608 L49.5466404,80.2732877 C49.4707348,80.3503393 49.3556494,80.3735884 49.2557857,80.3320451 C49.1559219,80.2905017 49.0912823,80.1924871 49.0924222,80.0843329 L49.0924222,79.4774973 C49.0924222,79.3309964 48.9736597,79.2122339 48.8271587,79.2122339 L47.893286,79.2122339 C47.7467851,79.2122339 47.6280226,79.3309964 47.6280226,79.4774973 L47.6280226,80.6948022 C47.6280226,80.8413032 47.7467851,80.9600657 47.893286,80.9600657 L48.2057882,80.9600657 C48.3139423,80.9589258 48.411957,81.0235654 48.4535003,81.1234291 C48.4950437,81.2232929 48.4717946,81.3383782 48.394743,81.4142839 L46.6905161,83.1185108 C46.5884079,83.2144981 46.4292497,83.2144981 46.3271415,83.1185108 L44.6229146,81.4142839 C44.545863,81.3383782 44.5226139,81.2232929 44.5641573,81.1234291 C44.6057006,81.0235654 44.7037153,80.9589258 44.8118694,80.9600657 L45.175244,80.9600657 C45.321745,80.9600657 45.4405075,80.8413032 45.4405075,80.6948022 L45.4405075,79.495666 C45.4405075,79.3491651 45.321745,79.2304026 45.175244,79.2304026 L43.1330788,79.2304026 C42.9865778,79.2304026 42.8678153,79.3491651 42.8678153,79.495666 L42.8678153,80.6948022 C42.8678153,80.8413032 42.9865778,80.9600657 43.1330788,80.9600657 L43.5182559,80.9600657 C43.62641,80.9589258 43.7244247,81.0235654 43.765968,81.1234291 C43.8075114,81.2232929 43.7842623,81.3383782 43.7072107,81.4142839 L42.0029838,83.1185108 C41.9008756,83.2144981 41.7417174,83.2144981 41.6396092,83.1185108 L39.9353823,81.4142839 C39.8583307,81.3383782 39.8350816,81.2232929 39.876625,81.1234291 C39.9181683,81.0235654 40.016183,80.9589258 40.1243371,80.9600657 L40.4005018,80.9600657 C40.5470028,80.9600657 40.6657653,80.8413032 40.6657653,80.6948022 L40.6657653,79.4774973 C40.6657653,79.3309964 40.5470028,79.2122339 40.4005018,79.2122339 L39.4811641,79.2122339 C39.3346631,79.2122339 39.2159006,79.3309964 39.2159006,79.4774973 L39.2159006,80.0770654 C39.2170406,80.1852196 39.152401,80.2832342 39.0525372,80.3247776 C38.9526734,80.3663209 38.8375881,80.3430718 38.7616824,80.2660202 L37.0719905,78.5690608 C36.9760032,78.4669526 36.9760032,78.3077944 37.0719905,78.2056862 L38.7762174,76.5014594 C38.8521231,76.4244078 38.9672084,76.4011587 39.0670722,76.442702 C39.1669359,76.4842453 39.2315756,76.58226 39.2304356,76.6904142 L39.2304356,77.2899822 C39.2304356,77.4364832 39.3491981,77.5552457 39.4956991,77.5552457 L40.4005018,77.5552457 C40.5470028,77.5552457 40.6657653,77.4364832 40.6657653,77.2899822 L40.6657653,76.0545086 C40.6657653,75.9080077 40.5470028,75.7892452 40.4005018,75.7892452 L40.0989009,75.7892452 C39.9907468,75.7903851 39.8927321,75.7257455 39.8511887,75.6258817 C39.8096454,75.5260179 39.8328945,75.4109326 39.9099461,75.3350269 L41.614173,73.6308001 C41.7162812,73.5348127 41.8754394,73.5348127 41.9775476,73.6308001 L43.6708732,75.3313932 C43.7479248,75.4072988 43.7711739,75.5223842 43.7296306,75.622248 C43.6880873,75.7221117 43.5900726,75.7867513 43.4819184,75.7856114 L43.0967413,75.7856114 C42.9502404,75.7856114 42.8314779,75.9043739 42.8314779,76.0508749 L42.8314779,77.2427435 C42.8314779,77.3892445 42.9502404,77.508007 43.0967413,77.508007 L45.1389066,77.508007 C45.2854075,77.508007 45.40417,77.3892445 45.40417,77.2427435 L45.40417,76.0508749 C45.40417,75.9043739 45.2854075,75.7856114 45.1389066,75.7856114 L44.775532,75.7856114 C44.6673778,75.7867513 44.5693631,75.7221117 44.5278198,75.622248 C44.4862765,75.5223842 44.5095256,75.4072988 44.5865772,75.3313932 L46.2908041,73.6271663 C46.3929122,73.5311789 46.5520705,73.5311789 46.6541786,73.6271663 L48.394743,75.3313932 C48.4717946,75.4072988 48.4950437,75.5223842 48.4535003,75.622248 C48.411957,75.7221117 48.3139423,75.7867513 48.2057882,75.7856114 L47.893286,75.7856114 C47.7467851,75.7856114 47.6280226,75.9043739 47.6280226,76.0508749 L47.6280226,77.2681798 C47.6280226,77.4146807 47.7467851,77.5334432 47.893286,77.5334432 L48.8271587,77.5334432 C48.9736597,77.5334432 49.0924222,77.4146807 49.0924222,77.2681798 L49.0924222,76.6722454 C49.0912823,76.5640913 49.1559219,76.4660766 49.2557857,76.4245333 C49.3556494,76.3829899 49.4707348,76.406239 49.5466404,76.4832906 L51.2508673,78.2056862 C51.3468547,78.3077944 51.3468547,78.4669526 51.2508673,78.5690608 L51.2508673,78.5690608 Z"/>
    </g>
    <g transform="translate(467 9)">
      <path fill="#CAD3D9" d="M18.81089,11.9880997 C20.7348567,8.87954741 20.2698858,4.71690626 17.415113,2.17933042 C17.415113,2.17933042 17.2981648,2.06238218 17.2981648,1.94543394 C14.1405623,-0.744375536 9.22873632,-0.393530821 6.53892684,2.76407161 C3.84911736,5.92167404 4.19996208,10.7165518 7.35756451,13.5233095 L6.30503036,14.6927919 L12.035494,19.7215661 L12.0908091,19.6598805 L15.0761482,22.2947782 L16.1286824,21.1252958 C18.3506989,23.1134159 21.7421978,22.8795194 23.7303179,20.6575029 L27.238765,16.6812628 L23.2625249,13.1728157 C21.9862334,12.0974779 20.3615544,11.7173704 18.81089,11.9880997 Z"/>
      <path fill="#DEBFA5" d="M3.16710401,13.2659053 C3.94247974,12.8361575 4.90205104,12.9220368 5.60380873,13.5235434 L13.6720677,20.6573859 C14.4918748,21.3590754 15.8952537,23.9319366 15.076616,24.633626 C14.2568089,25.3353155 11.6851171,24.0488849 10.8664794,23.3471954 L2.79705101,16.2133529 C2.29617177,15.7124737 2.09264423,15.0328259 2.27281674,14.3870902 L0.575736176,13.6403747 C0.340670218,13.5234265 0.22372198,13.28953 0.340670218,13.0556335 C0.457618456,12.821737 0.691514932,12.7047888 1.04235965,12.821737 L2.23605509,13.346963 L1.62733473,11.8860342 C1.5103865,11.6521377 1.62733473,11.4182412 1.86123121,11.301293 C2.09512769,11.1843448 2.32902416,11.301293 2.4459724,11.5351895 L3.16710401,13.2659053 Z"/>
      <path fill="#E8F0F6" d="M14.0368355,14.7864395 L15.7876225,12.833263 C15.9045707,12.7163148 15.9045707,12.5993666 16.021519,12.4824183 C18.5943802,9.20786766 18.1265873,4.41298989 14.8520366,1.84012865 C11.6944342,-0.498836109 7.36851883,-0.264939632 4.56059163,2.54181808 C4.44481288,2.54181808 4.44481288,2.65876632 4.32669516,2.77571456 C1.63688568,5.93331699 1.87078216,10.7281948 5.02955407,13.5349525 C4.44481288,14.1196937 4.56059163,15.0552796 5.14533282,15.6400208 L9.70748359,19.6162609 L9.70859566,19.6150202 L13.0873265,22.6452721 C13.4393407,22.8791686 14.0240819,22.8791686 14.2568089,22.5283239 C14.4918748,22.1774791 14.9596678,22.1774791 15.3105125,22.4113756 C17.532529,23.8147545 20.5731832,23.4639098 22.3274068,21.4757897 L25.3668915,18.0842908 L25.4850092,17.9673426 C25.7189057,17.6164979 25.7189057,17.1487049 25.3668915,16.9148084 L22.5613033,14.4588954 C20.0769435,12.313312 16.3931324,12.4575901 14.0368355,14.7864395 Z"/>
      <path fill="#FF9012" d="M8.76164506,9.43035508 C9.69723096,10.365941 11.2175581,10.2489927 12.0361957,9.31340684 C12.9717816,8.37782094 12.8548334,6.85749384 11.918078,6.03885617 C10.9824921,5.22021851 9.46333448,5.22021851 8.64352733,6.15580441 C8.64352733,6.15580441 8.64352733,6.27275265 8.52774858,6.27275265 C7.70911091,7.20833856 7.82488967,8.61171741 8.76164506,9.43035508"/>
    </g>
    <g transform="translate(178.328 54)">
      <path fill="#87B09A" d="M3.9000039,38.0589266 C-1.3000013,36.408178 -1.3000013,33.8403468 3.9000039,32.1895982 L45.68576,18.8001927 C51.8143375,17.149444 58.1286296,17.149444 64.2572071,18.8001927 L106.042963,32.1895982 C111.242968,33.8403468 111.242968,36.408178 106.042963,38.0589266 L64.2572071,51.4483321 C58.314344,53.0990808 51.8143375,53.0990808 45.68576,51.4483321 L3.9000039,38.0589266 Z"/>
      <path fill="#799987" d="M109.942967,17.5621312 L109.942967,28.5078893 C109.942967,29.6402091 108.642966,30.7725289 106.041106,31.5274088 L64.25535,45.3039665 C58.1286296,47.0024462 51.8124804,47.0024462 45.6839028,45.3039665 L3.89814676,31.5274088 C1.3000013,30.7725289 0,29.6402091 0,28.5078893 L0,17.5621312 C0.183857327,18.505731 1.48571577,19.4493309 3.71428943,20.2042108 L45.5000455,33.9807684 C51.6286231,35.6792481 57.9429151,35.6792481 64.0714926,33.9807684 L105.857249,20.2042108 C108.085822,19.4493309 109.383967,18.505731 109.571538,17.5621312 L109.942967,17.5621312 Z"/>
      <path fill="#799987" d="M109.942967,35.1242624 L109.942967,46.0700205 C109.942967,47.2023403 108.642966,48.3346601 106.041106,49.08954 L64.25535,62.8660977 C58.1286296,64.5645774 51.8124804,64.5645774 45.6839028,62.8660977 L3.89814676,49.08954 C1.3000013,48.3346601 0,47.2023403 0,46.0700205 L0,35.1242624 C0.183857327,36.0678622 1.48571577,37.0114621 3.71428943,37.766342 L45.5000455,51.5428996 C51.6286231,53.2413793 57.9429151,53.2413793 64.0714926,51.5428996 L105.857249,37.766342 C108.085822,37.0114621 109.383967,36.0678622 109.571538,35.1242624 L109.942967,35.1242624 Z"/>
      <path fill="#87B09A" d="M3.9000039,20.4967954 C-1.3000013,18.8460468 -1.3000013,16.2782156 3.9000039,14.627467 L45.68576,1.23806147 C51.8143375,-0.412687156 58.1286296,-0.412687156 64.2572071,1.23806147 L106.042963,14.627467 C111.242968,16.2782156 111.242968,18.8460468 106.042963,20.4967954 L64.2572071,33.8862009 C58.314344,35.5369496 51.8143375,35.5369496 45.68576,33.8862009 L3.9000039,20.4967954 Z"/>
      <path fill="#FFF" d="M88.5864989,16.8138317 L80.877455,13.8817194 C80.1253532,13.5152053 78.8110552,13.8817194 78.8110552,14.2482334 L78.8110552,15.3477755 C78.8110552,15.5310326 78.2450986,15.7142896 77.494877,15.7142896 L73.1702914,15.7142896 C72.4163093,15.7142896 71.8541132,15.5310326 71.8541132,15.3477755 L71.8541132,13.3319483 C71.8541132,13.1486913 72.4163093,12.9654343 73.1702914,12.9654343 L74.6744951,12.9654343 C75.8007676,12.9654343 76.364844,12.4156632 75.6146224,12.2324062 L67.9036983,9.30029383 C67.3396219,9.11703681 66.7755455,9.11703681 66.2133494,9.30029383 L58.5024253,12.2324062 C57.7522037,12.5989202 58.3143998,12.9654343 59.4425526,12.9654343 L61.1347817,12.9654343 C61.8887638,12.9654343 62.4528402,13.1486913 62.4528402,13.3319483 L62.4528402,15.3477755 C62.4528402,15.5310326 61.8887638,15.7142896 61.1347817,15.7142896 L51.7335087,15.7142896 C50.9814069,15.7142896 50.4173305,15.5310326 50.4173305,15.3477755 L50.4173305,13.3319483 C50.4173305,13.1486913 50.9814069,12.9654343 51.7335087,12.9654343 L53.4276181,12.9654343 C54.5538906,12.9654343 55.117967,12.4156632 54.3677454,12.2324062 L46.6568213,9.30029383 C46.0927449,9.11703681 45.5305488,9.11703681 44.9664724,9.30029383 L37.2555483,12.2324062 C36.5053267,12.5989202 37.0694031,12.9654343 38.1956756,12.9654343 L39.5118538,12.9654343 C40.2658359,12.9654343 40.8299123,13.1486913 40.8299123,13.3319483 L40.8299123,15.3477755 C40.8299123,15.5310326 40.2658359,15.7142896 39.5118538,15.7142896 L35.3752937,15.7142896 C34.6250721,15.7142896 34.0591155,15.5310326 34.0591155,15.3477755 L34.0591155,14.2482334 C34.0591155,13.8817194 32.7448175,13.6984623 31.9908354,13.8817194 L24.2836718,16.8138317 C23.9076209,16.9970887 23.9076209,17.3636028 24.2836718,17.5468598 L31.9908354,20.4789721 C32.7448175,20.8454862 34.0591155,20.4789721 34.0591155,20.1124581 L34.0591155,19.012916 C34.0591155,18.8296589 34.6250721,18.6464019 35.3752937,18.6464019 L39.5118538,18.6464019 C40.2658359,18.6464019 40.8299123,18.8296589 40.8299123,19.012916 L40.8299123,21.0287432 C40.8299123,21.2120002 40.2658359,21.3952572 39.5118538,21.3952572 L37.6315992,21.3952572 C36.5053267,21.3952572 35.9393701,21.9450283 36.6914719,22.1282853 L44.4005158,25.0603977 C44.9664724,25.2436547 45.5305488,25.2436547 46.0927449,25.0603977 L53.8017888,22.1282853 C54.5538906,21.7617713 53.9916945,21.3952572 52.8616615,21.3952572 L51.1713126,21.3952572 C50.4173305,21.3952572 49.8532541,21.2120002 49.8532541,21.0287432 L49.8532541,19.012916 C49.8532541,18.8296589 50.4173305,18.6464019 51.1713126,18.6464019 L60.5725856,18.6464019 C61.3228072,18.6464019 61.8887638,18.8296589 61.8887638,19.012916 L61.8887638,21.0287432 C61.8887638,21.2120002 61.3228072,21.3952572 60.5725856,21.3952572 L58.8784762,21.3952572 C57.7522037,21.3952572 57.1881273,21.9450283 57.9383489,22.1282853 L65.649273,25.0603977 C66.2133494,25.2436547 66.7755455,25.2436547 67.3396219,25.0603977 L75.050546,22.1282853 C75.8007676,21.7617713 75.2366912,21.3952572 74.1104187,21.3952572 L73.3564366,21.3952572 C72.6043348,21.3952572 72.0402584,21.2120002 72.0402584,21.0287432 L72.0402584,19.012916 C72.0402584,18.8296589 72.6043348,18.6464019 73.3564366,18.6464019 L77.6810222,18.6464019 C78.4350043,18.6464019 78.9972004,18.8296589 78.9972004,19.012916 L78.9972004,20.1124581 C78.9972004,20.4789721 80.3152589,20.6622291 81.0654805,20.4789721 L88.7764046,17.5468598 C89.1524555,17.3636028 89.1524555,16.9970887 88.5864989,16.8138317"/>
      <g>
        <use fill="#000" filter="url(#image-cat-set-c)" xlink:href="#image-cat-set-d"/>
        <use fill="#B9DA8D" xlink:href="#image-cat-set-d"/>
      </g>
      <g>
        <use fill="#000" filter="url(#image-cat-set-e)" xlink:href="#image-cat-set-f"/>
        <use fill="#B9DA8D" xlink:href="#image-cat-set-f"/>
      </g>
    </g>
    <g transform="translate(.57 39.551)">
      <g transform="translate(0 29.585)">
        <g transform="translate(0 3.021)">
          <mask id="image-cat-set-h" fill="#fff">
            <use xlink:href="#image-cat-set-g"/>
          </mask>
          <path fill="#E2F0F7" d="M44.4311134,0.226358843 L44.4311134,33.5440501 C44.4311134,36.2323041 42.2257884,38.41001 39.5029005,38.41001 L4.9302237,38.41001 C2.2073358,38.41001 0.00157367096,36.2323041 0.00157367096,33.5440501 L0.00157367096,0.226358843 L2.38000248,0.226358843 L2.38000248,0.50601667 C2.38000248,1.15078333 3.36529535,1.67384704 4.59756714,1.67384704 L39.5890153,1.67384704 C40.8090474,1.67384704 41.8070171,1.15078333 41.8070171,0.50601667 L41.8070171,0.226358843 L44.4311134,0.226358843 Z" mask="url(#image-cat-set-h)"/>
        </g>
        <path fill="#E2F0F7" d="M41.8087656,3.24735389 L41.8087656,3.59778235 C41.8087656,4.40571464 40.8107959,5.06114565 39.5903267,5.06114565 L4.59931567,5.06114565 C3.36704388,5.06114565 2.381751,4.40571464 2.381751,3.59778235 L2.381751,3.24735389 L41.8087656,3.24735389 Z"/>
        <path fill="#F3FCFF" d="M41.8087656,2.77279873 L41.8087656,3.52718435 C41.8087656,4.171951 40.8107959,4.69501472 39.5903267,4.69501472 L4.59931567,4.69501472 C3.36704388,4.69501472 2.381751,4.171951 2.381751,3.52718435 L2.381751,2.77279873 C2.381751,2.12803207 3.36704388,1.60496835 4.59931567,1.60496835 L39.5903267,1.60496835 C40.8107959,1.60496835 41.8087656,2.12803207 41.8087656,2.77279873"/>
        <path fill="#E2F0F7" d="M41.8087656,2.77279873 L41.8087656,3.52718435 C41.8087656,4.171951 40.8107959,4.69501472 39.5903267,4.69501472 L4.59931567,4.69501472 C3.36704388,4.69501472 2.381751,4.171951 2.381751,3.52718435 L2.381751,2.77279873 C2.381751,2.12803207 3.36704388,1.60496835 4.59931567,1.60496835 L39.5903267,1.60496835 C40.8107959,1.60496835 41.8087656,2.12803207 41.8087656,2.77279873"/>
        <mask id="image-cat-set-j" fill="#fff">
          <use xlink:href="#image-cat-set-i"/>
        </mask>
        <path fill="#F3FCFF" d="M41.8087656,3.52696856 C41.8087656,4.17173522 40.8107959,4.69479893 39.5903267,4.69479893 L4.59931567,4.69479893 C3.36704388,4.69479893 2.381751,4.17173522 2.381751,3.52696856 L2.381751,2.77258294 C2.381751,2.12824785 3.36704388,1.60518414 4.59931567,1.60518414 L39.5903267,1.60518414 C40.8107959,1.60518414 41.8087656,2.12824785 41.8087656,2.77258294 L41.8087656,3.52696856 Z M41.9311622,0.0601609585 L2.50414763,0.0601609585 C1.11188596,0.0601609585 0.00332219425,1.16713986 0.00332219425,2.52960862 L0.00332219425,4.11088375 C0.00332219425,5.47335251 1.11188596,6.58033141 2.50414763,6.58033141 L41.9311622,6.58033141 C43.3116214,6.58033141 44.4328619,5.47335251 44.4328619,4.11088375 L44.4328619,2.52960862 C44.4328619,1.16713986 43.3116214,0.0601609585 41.9311622,0.0601609585 L41.9311622,0.0601609585 Z" mask="url(#image-cat-set-j)"/>
      </g>
      <polygon fill="#847264" points="3.02 58.834 41.412 58.834 41.412 46.143 3.02 46.143"/>
      <g transform="translate(2.623 27.427)">
        <path fill="#685A50" d="M37.9138425,40.8563686 L1.27003989,40.8563686 C0.787010334,40.8563686 0.395778247,40.4510701 0.395778247,39.9516844 L0.395778247,30.9523388 L38.7881042,30.9523388 L38.7881042,39.9516844 C38.7881042,40.4510701 38.396435,40.8563686 37.9138425,40.8563686"/>
        <path d="M14.8808254,0.146259317 L14.8481975,0.146259317"/>
        <path fill="#9B8676" d="M37.9138425,22.0657794 L1.27003989,22.0657794 C0.787010334,22.0657794 0.395778247,21.679092 0.395778247,21.202638 L0.395778247,16.2296485 C0.395778247,15.7527629 0.787010334,15.3665071 1.27003989,15.3665071 L37.9138425,15.3665071 C38.396435,15.3665071 38.7881042,15.7527629 38.7881042,16.2296485 L38.7881042,21.202638 C38.7881042,21.679092 38.396435,22.0657794 37.9138425,22.0657794"/>
      </g>
      <g transform="translate(0 .238)">
        <path fill="#AAE655" d="M36.1209505,35.1349061 C34.7855158,35.6480437 33.3368642,35.9268383 31.8217688,35.9268383 C25.1415356,35.9268383 19.7246104,30.4713529 19.7246104,23.74446 C19.7246104,17.0141146 25.1415356,11.5581976 31.8217688,11.5581976 C32.6549402,11.5581976 33.469752,11.6440802 34.2552761,11.8063507 C24.5684571,13.5248654 17.3951403,33.4332227 36.1209505,35.1349061"/>
        <path fill="#BFEC80" d="M43.9235608,23.7444169 C43.9235608,28.9487282 40.6852957,33.3887278 36.1207756,35.1348629 C17.3949654,33.4331796 24.5687193,13.5248222 34.2555384,11.8063076 C39.7760635,12.9391807 43.9235608,17.8547712 43.9235608,23.7444169"/>
        <path fill="#AAE655" d="M27.9635647,23.7701385 C26.6281301,24.2832761 25.1794785,24.5620708 23.6643831,24.5620708 C16.9841499,24.5620708 11.5672247,19.1065853 11.5672247,12.3796924 C11.5672247,5.64934705 16.9841499,0.193429997 23.6643831,0.193429997 C24.4975544,0.193429997 25.3123663,0.279744141 26.0978904,0.441583162 C16.4110713,2.16009777 9.23775454,22.0688867 27.9635647,23.7701385"/>
        <path fill="#BFEC80" d="M35.7661751,12.3796493 C35.7661751,17.5839606 32.5279099,22.0239602 27.9633899,23.7700953 C9.23757969,22.0688435 16.4113336,2.16005462 26.0981527,0.441540005 C31.6186778,1.57441315 35.7661751,6.49000366 35.7661751,12.3796493"/>
        <path fill="#AAE655" d="M18.3629042,35.1349061 C17.0274695,35.6480437 15.578818,35.9268383 14.0637225,35.9268383 C7.38348931,35.9268383 1.96656415,30.4713529 1.96656415,23.74446 C1.96656415,17.0141146 7.38348931,11.5581976 14.0637225,11.5581976 C14.8968939,11.5581976 15.7117057,11.6440802 16.4972298,11.8063507 C6.8104108,13.5248654 -0.362906009,33.4332227 18.3629042,35.1349061"/>
        <path fill="#BFEC80" d="M26.1655582,23.7444169 C26.1655582,28.9487282 22.9272931,33.3887278 18.362773,35.1348629 C-0.363037149,33.4331796 6.81071679,13.5248222 16.4975358,11.8063076 C22.018061,12.9391807 26.1655582,17.8547712 26.1655582,23.7444169"/>
        <path fill="#759684" d="M26.7119718,22.7314772 C26.1318992,22.1587829 25.1920679,22.1587829 24.6119953,22.7314772 L24.1774873,23.1608901 L24.1774873,20.8360186 C24.1774873,20.026392 23.5126113,19.3699729 22.692991,19.3699729 C21.8729336,19.3699729 21.2080576,20.026392 21.2080576,20.8360186 L21.2080576,26.09255 L20.7731124,25.6631371 C20.1930398,25.0904428 19.2536457,25.0904428 18.6735731,25.6631371 C18.0935005,26.2358315 18.0935005,27.163277 18.6735731,27.7359713 L21.2080576,30.2382184 L21.2080576,44.2892979 L24.1774873,44.2892979 L24.1774873,27.3061269 L26.7119718,24.8043114 C27.2916072,24.2316171 27.2916072,23.3041716 26.7119718,22.7314772"/>
        <g opacity=".5" transform="translate(0 32.368)">
          <mask id="image-cat-set-l" fill="#fff">
            <use xlink:href="#image-cat-set-k"/>
          </mask>
          <path fill="#F3FCFF" d="M44.4294086,0.226358843 L44.4294086,1.08993186 C44.4294086,2.45240062 43.308168,3.55937952 41.9277089,3.55937952 L2.5006943,3.55937952 C1.10843263,3.55937952 -0.000131139247,2.45240062 -0.000131139247,1.08993186 L-0.000131139247,0.226358843 L2.37829767,0.226358843 L2.37829767,0.50601667 C2.37829767,1.15078333 3.36359054,1.67384704 4.59586233,1.67384704 L39.5873105,1.67384704 C40.8073426,1.67384704 41.8053123,1.15078333 41.8053123,0.50601667 L41.8053123,0.226358843 L44.4294086,0.226358843 Z" mask="url(#image-cat-set-l)"/>
        </g>
        <path fill="#847264" d="M18.6523722,45.9332371 L26.5862967,45.9332371 C26.5862967,45.1223157 25.9205464,44.4646019 25.0987405,44.4646019 C24.9431219,44.4646019 24.7953717,44.4948119 24.6537413,44.5388321 C24.2061193,43.9031284 23.4629969,43.4853679 22.6193344,43.4853679 C21.7761091,43.4853679 21.0329867,43.9031284 20.5849276,44.5388321 C20.4437343,44.4948119 20.2964212,44.4646019 20.1399284,44.4646019 C19.3185596,44.4646019 18.6523722,45.1223157 18.6523722,45.9332371"/>
      </g>
    </g>
  </g>
</svg>
