<svg xmlns="http://www.w3.org/2000/svg" width="99" height="102" viewBox="0 0 99 102">
  <g fill="none" fill-rule="evenodd" transform="scale(-1 1) rotate(18 20.725 -273.828)">
    <rect width="8.01" height="3" x="27" y="87.555" fill="#000" fill-opacity=".1"/>
    <path stroke="#DEBFA5" d="M56.8745117,8.63330078 C48.597168,9.796875 45.5877949,19.4628906 45.5877949,23.8007812"/>
    <path fill="#DDC7AE" fill-rule="nonzero" d="M65.6296778,106.822625 C63.4171105,106.822625 62.0250167,105.533075 61.5503697,103.242337 C59.0396061,93.2117235 60.047291,86.5221531 64.5734245,83.173626 C71.3626248,78.1508352 73.5270223,85.1537964 69.5964645,89.3765637 C66.9760926,92.1917419 66.9888393,96.6764011 69.6347047,102.830541 C69.6347047,105.035958 67.8422451,106.822625 65.6296778,106.822625 Z" transform="rotate(-51 65.878 94.126)"/>
    <path fill="#DDC7AE" fill-rule="nonzero" d="M38.0057807,106.822625 C35.7932134,106.822625 34.4011196,105.533075 33.9264726,103.242337 C31.415709,93.2117235 32.4233939,86.5221531 36.9495275,83.173626 C43.7387277,78.1508352 45.9031252,85.1537964 41.9725674,89.3765637 C39.3521955,92.1917419 39.3649423,96.6764011 42.0108076,102.830541 C42.0108076,105.035958 40.218348,106.822625 38.0057807,106.822625 Z" transform="rotate(-51 38.254 94.126)"/>
    <path fill="#DDC7AE" fill-rule="nonzero" d="M9.90710972,62.1164788 C7.69454239,62.1164788 5.90208279,60.3298122 5.90208279,58.1243955 L5.90208279,43.3704372 L13.9121366,43.3704372 L13.9121366,58.1243955 C13.9121366,60.3298122 12.119677,62.1164788 9.90710972,62.1164788 Z" transform="rotate(140 9.907 52.743)"/>
    <rect width="78.545" height="65.309" x="12" y="22.555" fill="#DDC7AE" rx="6"/>
    <path fill="#A2BD7C" d="M18,69.5551758 L90.5451895,69.5551758 L90.5451895,82.3012174 L90.5451895,82.3012174 C90.5451895,85.6149259 87.858898,88.3012174 84.5451895,88.3012174 L18,88.3012174 L18,88.3012174 C14.6862915,88.3012174 12,85.6149259 12,82.3012174 L12,75.5551758 L12,75.5551758 C12,72.2414673 14.6862915,69.5551758 18,69.5551758 Z"/>
    <rect width="63.852" height="61.845" x="12" y="25.555" fill="#FFE9D1" rx="4"/>
    <path fill="#FFF" d="M43.7701059,44.4259858 L43.7701059,44.4259858 L43.7701059,44.4259858 C50.836804,44.4259858 56.5654947,50.1546765 56.5654947,57.2213746 L56.5654947,70.2831286 L30.974717,70.2831286 L30.974717,57.2213746 L30.974717,57.2213746 C30.974717,50.1546765 36.7034077,44.4259858 43.7701059,44.4259858 Z"/>
    <path fill="#837365" fill-rule="nonzero" d="M45.6266372,43.9692136 L45.2024423,44.4839896 C44.5661498,45.2806667 43.42318,45.3787193 42.6572725,44.7168644 C42.5747901,44.643325 42.5040909,44.5697856 42.4333918,44.4839896 L42.0091968,43.9692136 C41.8677985,43.7976217 41.8913649,43.5402337 42.0563296,43.3931548 C42.1270288,43.331872 42.2212943,43.2951023 42.3155598,43.2951023 L45.3202742,43.2951023 C45.5441549,43.2951023 45.7209028,43.4789508 45.7209028,43.7118257 C45.7209028,43.7976217 45.6855532,43.8956742 45.6266372,43.9692136 Z"/>
    <ellipse cx="28.722" cy="41.272" fill="#837365" fill-rule="nonzero" rx="1.722" ry="1.717"/>
    <ellipse cx="58.722" cy="41.272" fill="#837365" fill-rule="nonzero" rx="1.722" ry="1.717"/>
    <path fill="#837365" fill-rule="nonzero" d="M47.3909668,49.56957 L46.431632,50.3441984 C44.9926297,51.5430279 42.4077553,51.6905762 40.6756229,50.6946255 C40.4890856,50.5839643 40.3291964,50.4733031 40.1693073,50.3441984 L39.2099724,49.56957 C38.8901942,49.3113606 38.9434905,48.9240464 39.3165652,48.702724 C39.4764543,48.6105064 39.6896399,48.5551758 39.9028254,48.5551758 L46.6981139,48.5551758 C47.2044295,48.5551758 47.6041523,48.8318288 47.6041523,49.1822559 C47.6041523,49.3113606 47.5242078,49.4589088 47.3909668,49.56957 Z"/>
    <path stroke="#827365" stroke-linecap="round" stroke-linejoin="round" d="M14 49.5551758L17 49.5551758M70.1893763 49.9214417L73.1893763 49.9214417M14 45.5551758L17 45.5551758M70.1893763 45.4214417L73.1893763 45.4214417M14 54.5551758L17 54.5551758M70.1893763 54.4214417L73.1893763 54.4214417"/>
    <g transform="translate(51 14.555)">
      <path fill="#DDC7AE" d="M10.3242716,1.86558247 L14.7437844,9.59972995 L0.695299856,9.59972995 L5.1148127,1.86558247 L5.1148127,1.86558247 C5.93684261,0.42703013 7.7694066,-0.0727600504 9.20795894,0.749269858 C9.67305277,1.01503776 10.0585037,1.40048864 10.3242716,1.86558247 Z"/>
      <path fill="#827365" d="M8.58778527,6.45964674 L10.3821185,9.59972995 L5.05696573,9.59972995 L6.85129899,6.45964674 L6.85129899,6.45964674 C7.12530896,5.9801293 7.73616362,5.81353257 8.21568107,6.08754254 C8.37071234,6.17613184 8.49919597,6.30461547 8.58778527,6.45964674 Z"/>
    </g>
    <g transform="translate(22 14.555)">
      <path fill="#DDC7AE" d="M10.3242716,1.86558247 L14.7437844,9.59972995 L0.695299856,9.59972995 L5.1148127,1.86558247 L5.1148127,1.86558247 C5.93684261,0.42703013 7.7694066,-0.0727600504 9.20795894,0.749269858 C9.67305277,1.01503776 10.0585037,1.40048864 10.3242716,1.86558247 Z"/>
      <path fill="#827365" d="M8.58778527,6.45964674 L10.3821185,9.59972995 L5.05696573,9.59972995 L6.85129899,6.45964674 L6.85129899,6.45964674 C7.12530896,5.9801293 7.73616362,5.81353257 8.21568107,6.08754254 C8.37071234,6.17613184 8.49919597,6.30461547 8.58778527,6.45964674 Z"/>
    </g>
    <polygon fill="#000" fill-opacity=".1" points="56.44 87.555 64.45 87.555 65.26 90.555 56.44 90.555"/>
    <polygon fill="#000" fill-opacity=".1" points="28.816 87.555 36.826 87.555 37.636 90.555 28.816 90.555"/>
    <path fill="#DDC7AE" fill-rule="nonzero" d="M94.4868894,60.456661 C92.2743221,60.456661 90.4818625,58.6699944 90.4818625,56.4645777 L90.4818625,41.7106194 L98.4919164,41.7106194 L98.4919164,56.4645777 C98.4919164,58.6699944 96.6994568,60.456661 94.4868894,60.456661 Z" transform="rotate(-125 94.487 51.084)"/>
    <g transform="translate(48.5 .555)">
      <g fill="#FF9012">
        <g transform="translate(3.25 2.25)">
          <ellipse cx="8.25" cy="5.25" rx="1.5" ry="2.25" transform="rotate(90 8.25 5.25)"/>
          <ellipse cx="5.25" cy="2.25" rx="1.5" ry="2.25"/>
          <ellipse cx="2.25" cy="5.25" rx="1.5" ry="2.25" transform="rotate(-90 2.25 5.25)"/>
          <ellipse cx="5.25" cy="8.25" rx="1.5" ry="2.25" transform="rotate(-180 5.25 8.25)"/>
        </g>
        <g transform="rotate(45 4.159 10.298)">
          <ellipse cx="8.25" cy="5.25" rx="1.5" ry="2.25" transform="rotate(90 8.25 5.25)"/>
          <ellipse cx="5.25" cy="2.25" rx="1.5" ry="2.25"/>
          <ellipse cx="2.25" cy="5.25" rx="1.5" ry="2.25" transform="rotate(-90 2.25 5.25)"/>
          <ellipse cx="5.25" cy="8.25" rx="1.5" ry="2.25" transform="rotate(-180 5.25 8.25)"/>
        </g>
      </g>
      <path fill="#FFE48F" d="M8.5,9 C7.67263564,9 7,8.32716744 7,7.49991958 C7,6.67267171 7.67263564,6 8.5,6 C9.32720352,6 10,6.67267171 10,7.49991958 C10,8.32716744 9.32720352,9 8.5,9"/>
    </g>
    <path fill="#B9DA8D" d="M12,69.5551758 L75.8520978,69.5551758 L75.8520978,84.3012174 L75.8520978,84.3012174 C75.8520978,86.5103564 74.0612368,88.3012174 71.8520978,88.3012174 L16,88.3012174 L16,88.3012174 C13.790861,88.3012174 12,86.5103564 12,84.3012174 L12,69.5551758 Z"/>
    <path fill="#FFF" fill-rule="nonzero" d="M51.2508673,78.5690608 L49.5466404,80.2732877 C49.4707348,80.3503393 49.3556494,80.3735884 49.2557857,80.3320451 C49.1559219,80.2905017 49.0912823,80.1924871 49.0924222,80.0843329 L49.0924222,79.4774973 C49.0924222,79.3309964 48.9736597,79.2122339 48.8271587,79.2122339 L47.893286,79.2122339 C47.7467851,79.2122339 47.6280226,79.3309964 47.6280226,79.4774973 L47.6280226,80.6948022 C47.6280226,80.8413032 47.7467851,80.9600657 47.893286,80.9600657 L48.2057882,80.9600657 C48.3139423,80.9589258 48.411957,81.0235654 48.4535003,81.1234291 C48.4950437,81.2232929 48.4717946,81.3383782 48.394743,81.4142839 L46.6905161,83.1185108 C46.5884079,83.2144981 46.4292497,83.2144981 46.3271415,83.1185108 L44.6229146,81.4142839 C44.545863,81.3383782 44.5226139,81.2232929 44.5641573,81.1234291 C44.6057006,81.0235654 44.7037153,80.9589258 44.8118694,80.9600657 L45.175244,80.9600657 C45.321745,80.9600657 45.4405075,80.8413032 45.4405075,80.6948022 L45.4405075,79.495666 C45.4405075,79.3491651 45.321745,79.2304026 45.175244,79.2304026 L43.1330788,79.2304026 C42.9865778,79.2304026 42.8678153,79.3491651 42.8678153,79.495666 L42.8678153,80.6948022 C42.8678153,80.8413032 42.9865778,80.9600657 43.1330788,80.9600657 L43.5182559,80.9600657 C43.62641,80.9589258 43.7244247,81.0235654 43.765968,81.1234291 C43.8075114,81.2232929 43.7842623,81.3383782 43.7072107,81.4142839 L42.0029838,83.1185108 C41.9008756,83.2144981 41.7417174,83.2144981 41.6396092,83.1185108 L39.9353823,81.4142839 C39.8583307,81.3383782 39.8350816,81.2232929 39.876625,81.1234291 C39.9181683,81.0235654 40.016183,80.9589258 40.1243371,80.9600657 L40.4005018,80.9600657 C40.5470028,80.9600657 40.6657653,80.8413032 40.6657653,80.6948022 L40.6657653,79.4774973 C40.6657653,79.3309964 40.5470028,79.2122339 40.4005018,79.2122339 L39.4811641,79.2122339 C39.3346631,79.2122339 39.2159006,79.3309964 39.2159006,79.4774973 L39.2159006,80.0770654 C39.2170406,80.1852196 39.152401,80.2832342 39.0525372,80.3247776 C38.9526734,80.3663209 38.8375881,80.3430718 38.7616824,80.2660202 L37.0719905,78.5690608 C36.9760032,78.4669526 36.9760032,78.3077944 37.0719905,78.2056862 L38.7762174,76.5014594 C38.8521231,76.4244078 38.9672084,76.4011587 39.0670722,76.442702 C39.1669359,76.4842453 39.2315756,76.58226 39.2304356,76.6904142 L39.2304356,77.2899822 C39.2304356,77.4364832 39.3491981,77.5552457 39.4956991,77.5552457 L40.4005018,77.5552457 C40.5470028,77.5552457 40.6657653,77.4364832 40.6657653,77.2899822 L40.6657653,76.0545086 C40.6657653,75.9080077 40.5470028,75.7892452 40.4005018,75.7892452 L40.0989009,75.7892452 C39.9907468,75.7903851 39.8927321,75.7257455 39.8511887,75.6258817 C39.8096454,75.5260179 39.8328945,75.4109326 39.9099461,75.3350269 L41.614173,73.6308001 C41.7162812,73.5348127 41.8754394,73.5348127 41.9775476,73.6308001 L43.6708732,75.3313932 C43.7479248,75.4072988 43.7711739,75.5223842 43.7296306,75.622248 C43.6880873,75.7221117 43.5900726,75.7867513 43.4819184,75.7856114 L43.0967413,75.7856114 C42.9502404,75.7856114 42.8314779,75.9043739 42.8314779,76.0508749 L42.8314779,77.2427435 C42.8314779,77.3892445 42.9502404,77.508007 43.0967413,77.508007 L45.1389066,77.508007 C45.2854075,77.508007 45.40417,77.3892445 45.40417,77.2427435 L45.40417,76.0508749 C45.40417,75.9043739 45.2854075,75.7856114 45.1389066,75.7856114 L44.775532,75.7856114 C44.6673778,75.7867513 44.5693631,75.7221117 44.5278198,75.622248 C44.4862765,75.5223842 44.5095256,75.4072988 44.5865772,75.3313932 L46.2908041,73.6271663 C46.3929122,73.5311789 46.5520705,73.5311789 46.6541786,73.6271663 L48.394743,75.3313932 C48.4717946,75.4072988 48.4950437,75.5223842 48.4535003,75.622248 C48.411957,75.7221117 48.3139423,75.7867513 48.2057882,75.7856114 L47.893286,75.7856114 C47.7467851,75.7856114 47.6280226,75.9043739 47.6280226,76.0508749 L47.6280226,77.2681798 C47.6280226,77.4146807 47.7467851,77.5334432 47.893286,77.5334432 L48.8271587,77.5334432 C48.9736597,77.5334432 49.0924222,77.4146807 49.0924222,77.2681798 L49.0924222,76.6722454 C49.0912823,76.5640913 49.1559219,76.4660766 49.2557857,76.4245333 C49.3556494,76.3829899 49.4707348,76.406239 49.5466404,76.4832906 L51.2508673,78.2056862 C51.3468547,78.3077944 51.3468547,78.4669526 51.2508673,78.5690608 L51.2508673,78.5690608 Z"/>
  </g>
</svg>
